<?xml version="1.0" encoding="UTF-8" standalone="no"?>
<svg
   xmlns:dc="http://purl.org/dc/elements/1.1/"
   xmlns:cc="http://creativecommons.org/ns#"
   xmlns:rdf="http://www.w3.org/1999/02/22-rdf-syntax-ns#"
   xmlns:svg="http://www.w3.org/2000/svg"
   xmlns="http://www.w3.org/2000/svg"
   width="15px"
   height="14px"
   viewBox="0 0 132.29 120.5"
   version="1.1"
   id="svg6">
  <metadata
     id="metadata12">
    <rdf:RDF>
      <cc:Work
         rdf:about="">
        <dc:format>image/svg+xml</dc:format>
        <dc:type
           rdf:resource="http://purl.org/dc/dcmitype/StillImage" />
        <dc:title></dc:title>
      </cc:Work>
    </rdf:RDF>
  </metadata>
  <defs
     id="defs10" />
  <g
     transform="matrix(.43865 0 0 .43865 8.1199 -19.589)"
     id="g4">
    <path
       d="m255.06 68.053a87.637 87.639 45 0 0-59.609-23.395 87.637 87.639 45 0 0-63.12 26.906l-0.0359-0.03594-0.0356 0.03558a87.637 87.639 45 0 0-63.119-26.905 87.637 87.639 45 0 0-87.639 87.639 87.637 87.639 45 0 0 26.905 63.119l-0.035992 0.036 123.92 123.92 123.93-123.93-8e-3 -8e-3a87.637 87.639 45 0 0 26.878-63.148 87.637 87.639 45 0 0-28.028-64.243z"
       fill="#f00"
       stroke-width="4.7339"
       id="path2" />
  </g>
</svg>
